<?xml version="1.0" encoding="utf-8"?>
<svg xmlns="http://www.w3.org/2000/svg" xmlns:xlink="http://www.w3.org/1999/xlink" version= "1.1" width="699px" height="233px" viewBox="640 567 699 233">
<g id="layer1">
<g>
<g style="fill:rgb(0,0,0); fill-opacity:1.0; stroke-linejoin: miter">
<path d="M817.68695,653.5155L817.68695,655.1916L819.441,655.1916L819.441,653.5155 Z M963.32776,653.5155L963.32776,655.1916L965.0818,655.1916L965.0818,653.5155 Z M1236.0072,653.5155L1236.0072,655.1916L1237.7612,655.1916L1237.7612,653.5155 Z M855.4857,654.24634L855.69037,658.5632L857.06433,658.5632L857.2787,654.24634 Z M859.0814,654.24634L859.27637,658.5632L860.66003,658.5632L860.87445,654.24634 Z M921.3778,654.24634L921.58246,658.5632L922.9564,658.5632L923.1708,654.24634 Z M924.9735,654.24634L925.16846,658.5632L926.5521,658.5632L926.76654,654.24634 Z M1001.1266,654.24634L1001.3312,658.5632L1002.70514,658.5632L1002.91956,654.24634 Z M1004.7223,654.24634L1004.9171,658.5632L1006.3009,658.5632L1006.51526,654.24634 Z M1067.0187,654.24634L1067.2233,658.5632L1068.5972,658.5632L1068.8116,654.24634 Z M1070.6144,654.24634L1070.8092,658.5632L1072.193,658.5632L1072.4073,654.24634 Z M843.958,658.1929L843.958,659.6351L853.6538,659.6351L853.6538,658.1929 Z M989.5989,658.1929L989.5989,659.6351L999.29456,659.6351L999.29456,658.1929 Z M903.867,658.53394Q905.1825,658.53394,905.88416,659.3038Q906.5857,660.06384,906.7319,661.7301L901.04114,661.7301Q901.0996,660.2392,901.8499,659.3817Q902.5905,658.53394,903.867,658.53394 Z M1049.5078,658.53394Q1050.8234,658.53394,1051.5249,659.3038Q1052.2266,660.06384,1052.3727,661.7301L1046.6819,661.7301Q1046.7404,660.2392,1047.4907,659.3817Q1048.2313,658.53394,1049.5078,658.53394 Z M1118.1674,658.53394Q1119.4829,658.53394,1120.1844,659.3038Q1120.886,660.06384,1121.0322,661.7301L1115.3414,661.7301Q1115.3999,660.2392,1116.1503,659.3817Q1116.8909,658.53394,1118.1674,658.53394 Z M843.958,663.18207L843.958,664.6242L853.6538,664.6242L853.6538,663.18207 Z M989.5989,663.18207L989.5989,664.6242L999.29456,664.6242L999.29456,663.18207 Z M731.0781,656.34143L721.3824,660.4146L721.3824,662.41223L731.0781,666.47565L731.0781,664.98474L722.71735,661.40857L731.0781,657.8421L731.0781,656.34143 Z M1085.3285,656.34143L1085.3285,657.8421L1093.6892,661.40857L1085.3285,664.98474L1085.3285,666.47565L1095.0242,662.41223L1095.0242,660.4146L1085.3285,656.34143 Z M1161.0234,656.34143L1151.3278,660.4146L1151.3278,662.41223L1161.0234,666.47565L1161.0234,664.98474L1152.6627,661.40857L1161.0234,657.8421L1161.0234,656.34143 Z M1196.2693,656.34143L1196.2693,657.8421L1204.63,661.40857L1196.2693,664.98474L1196.2693,666.47565L1205.965,662.41223L1205.965,660.4146L1196.2693,656.34143 Z M765.00836,658.57294Q765.81714,658.57294,766.46027,659.0699Q767.0937,659.5571,767.44446,660.49255Q767.7953,661.4183,767.7953,662.7046Q767.7953,663.9616,767.44446,664.87756Q767.0937,665.7838,766.45056,666.27106Q765.80743,666.75824,764.9791,666.75824Q763.5857,666.75824,763.01074,665.81305Q762.43585,664.86786,762.43585,662.7046Q762.43585,660.5218,763.04974,659.54736Q763.66364,658.57294,765.00836,658.57294 Z M1189.4092,658.57294Q1190.2179,658.57294,1190.8611,659.0699Q1191.4944,659.5571,1191.8452,660.49255Q1192.196,661.4183,1192.196,662.7046Q1192.196,663.9616,1191.8452,664.87756Q1191.4944,665.7838,1190.8513,666.27106Q1190.2083,666.75824,1189.3799,666.75824Q1187.9865,666.75824,1187.4115,665.81305Q1186.8367,664.86786,1186.8367,662.7046Q1186.8367,660.5218,1187.4504,659.54736Q1188.0645,658.57294,1189.4092,658.57294 Z M756.4527,662.77277L756.4527,663.64Q756.4527,664.44885,756.0142,665.2186Q755.58545,665.9787,754.83514,666.41724Q754.08484,666.8557,753.1201,666.8557Q752.2626,666.8557,751.79486,666.388Q751.33685,665.9202,751.33685,665.06274Q751.33685,664.27344,751.6779,663.7862Q752.019,663.29895,752.6621,663.0651Q753.29553,662.83124,754.5331,662.81177L756.4527,662.77277 Z M795.2844,662.77277L795.2844,663.64Q795.2844,664.44885,794.84595,665.2186Q794.4172,665.9787,793.6669,666.41724Q792.9165,666.8557,791.9518,666.8557Q791.0943,666.8557,790.6266,666.388Q790.1686,665.9202,790.1686,665.06274Q790.1686,664.27344,790.50964,663.7862Q790.8507,663.29895,791.49384,663.0651Q792.1272,662.83124,793.36475,662.81177L795.2844,662.77277 Z M879.46686,662.77277L879.46686,663.64Q879.46686,664.44885,879.0284,665.2186Q878.5996,665.9787,877.8493,666.41724Q877.099,666.8557,876.1343,666.8557Q875.27673,666.8557,874.809,666.388Q874.351,665.9202,874.351,665.06274Q874.351,664.27344,874.6921,663.7862Q875.03314,663.29895,875.6763,663.0651Q876.3097,662.83124,877.54724,662.81177L879.46686,662.77277 Z M940.92523,662.77277L940.92523,663.64Q940.92523,664.44885,940.4867,665.2186Q940.058,665.9787,939.3076,666.41724Q938.5573,666.8557,937.59265,666.8557Q936.7351,666.8557,936.2674,666.388Q935.8094,665.9202,935.8094,665.06274Q935.8094,664.27344,936.15045,663.7862Q936.4915,663.29895,937.13464,663.0651Q937.768,662.83124,939.00555,662.81177L940.92523,662.77277 Z M1025.1077,662.77277L1025.1077,663.64Q1025.1077,664.44885,1024.6692,665.2186Q1024.2405,665.9787,1023.4901,666.41724Q1022.73975,666.8557,1021.7751,666.8557Q1020.9176,666.8557,1020.4498,666.388Q1019.9918,665.9202,1019.9918,665.06274Q1019.9918,664.27344,1020.3329,663.7862Q1020.67395,663.29895,1021.3171,663.0651Q1021.95044,662.83124,1023.188,662.81177L1025.1077,662.77277 Z M1180.8535,662.77277L1180.8535,663.64Q1180.8535,664.44885,1180.415,665.2186Q1179.9862,665.9787,1179.236,666.41724Q1178.4856,666.8557,1177.5209,666.8557Q1176.6633,666.8557,1176.1957,666.388Q1175.7377,665.9202,1175.7377,665.06274Q1175.7377,664.27344,1176.0787,663.7862Q1176.4198,663.29895,1177.0629,663.0651Q1177.6963,662.83124,1178.9338,662.81177L1180.8535,662.77277 Z M1231.3396,662.77277L1231.3396,663.64Q1231.3396,664.44885,1230.9011,665.2186Q1230.4723,665.9787,1229.722,666.41724Q1228.9717,666.8557,1228.007,666.8557Q1227.1494,666.8557,1226.6818,666.388Q1226.2238,665.9202,1226.2238,665.06274Q1226.2238,664.27344,1226.5648,663.7862Q1226.9059,663.29895,1227.549,663.0651Q1228.1824,662.83124,1229.4199,662.81177L1231.3396,662.77277 Z M826.7201,658.5924Q828.0356,658.5924,828.62024,659.54736Q829.2049,660.5023,829.2049,662.7143Q829.2049,664.91656,828.6105,665.90076Q828.0258,666.8752,826.70056,666.8752Q825.2097,666.8752,824.54706,665.8813Q823.88446,664.8971,823.88446,662.8215Q823.88446,660.61926,824.5665,659.60583Q825.2389,658.5924,826.7201,658.5924 Z M972.3609,658.5924Q973.6764,658.5924,974.26105,659.54736Q974.8457,660.5023,974.8457,662.7143Q974.8457,664.91656,974.25134,665.90076Q973.6666,666.8752,972.34143,666.8752Q970.85046,666.8752,970.18787,665.8813Q969.52527,664.8971,969.52527,662.8215Q969.52527,660.61926,970.20734,659.60583Q970.87976,658.5924,972.3609,658.5924 Z M815.3093,657.2379Q814.31537,657.2379,813.76965,657.73486Q813.224,658.2319,812.805,659.58636L812.766,659.58636Q812.766,659.22577,812.68805,657.4328L811.0315,657.4328Q811.08997,658.7775,811.08997,659.8884L811.08997,667.9763L812.84393,667.9763L812.84393,662.48047Q812.84393,660.72644,813.4189,659.78125Q813.9938,658.84576,815.0852,658.84576Q815.66986,658.84576,816.0206,658.9432L816.0206,657.3354Q815.6601,657.2379,815.3093,657.2379 Z M817.68695,657.4328L817.68695,667.9763L819.441,667.9763L819.441,657.4328 Z M837.0492,654.24634L833.8043,656.47784L833.8043,658.1344L836.9031,655.9224L836.9031,666.4854L833.4048,666.4854L833.4048,667.9763L842.00916,667.9763L842.00916,666.4854L838.6668,666.4854L838.6668,654.24634 Z M861.7904,657.4328L865.62,667.9763L867.69556,667.9763L871.6323,657.4328L869.7711,657.4328L867.374,664.3124L866.99396,665.4623L866.6529,666.60236Q866.1072,664.6827,865.9805,664.2929L863.6614,657.4328 Z M884.1442,653.5155L884.1442,667.9763L885.8982,667.9763L885.8982,653.5155 Z M914.5957,654.24634L911.35077,656.47784L911.35077,658.1344L914.4495,655.9224L914.4495,666.4854L910.95123,666.4854L910.95123,667.9763L919.5556,667.9763L919.5556,666.4854L916.21326,666.4854L916.21326,654.24634 Z M960.9501,657.2379Q959.9562,657.2379,959.4105,657.73486Q958.8648,658.2319,958.4458,659.58636L958.4068,659.58636Q958.4068,659.22577,958.32886,657.4328L956.6723,657.4328Q956.7308,658.7775,956.7308,659.8884L956.7308,667.9763L958.48474,667.9763L958.48474,662.48047Q958.48474,660.72644,959.0597,659.78125Q959.63464,658.84576,960.72595,658.84576Q961.31067,658.84576,961.66144,658.9432L961.66144,657.3354Q961.3009,657.2379,960.9501,657.2379 Z M963.32776,657.4328L963.32776,667.9763L965.0818,667.9763L965.0818,657.4328 Z M983.09924,654.04175Q981.20886,654.04175,980.00055,655.0162Q978.802,655.9906,978.60706,657.63745L980.4,657.8031Q980.52673,656.70197,981.25757,656.0881Q981.97864,655.4839,983.09924,655.4839Q984.2783,655.4839,984.941,656.10754Q985.60364,656.7312,985.60364,657.8616Q985.60364,658.6996,985.21387,659.3622Q984.8338,660.02484,984.21014,660.62897Q983.58655,661.23315,982.80695,661.8373Q982.0371,662.44147,981.2478,663.15283Q980.4585,663.85443,979.7374,664.73145Q979.0261,665.5987,978.5292,666.7388L978.5292,667.9763L987.6207,667.9763L987.6207,666.4854L980.4585,666.4854Q980.75085,665.8033,981.41345,665.06274Q982.0761,664.3319,983.1967,663.4159Q985.23334,661.75934,985.9544,660.97003Q986.67554,660.1807,987.0458,659.3914Q987.4064,658.6022,987.4064,657.8031Q987.4064,656.00037,986.28577,655.0162Q985.17487,654.04175,983.09924,654.04175 Z M1007.4312,657.4328L1011.2608,667.9763L1013.33636,667.9763L1017.27313,657.4328L1015.4119,657.4328L1013.0148,664.3124L1012.63477,665.4623L1012.2937,666.60236Q1011.74805,664.6827,1011.62134,664.2929L1009.3021,657.4328 Z M1029.785,653.5155L1029.785,667.9763L1031.5391,667.9763L1031.5391,653.5155 Z M1060.6458,654.04175Q1058.7554,654.04175,1057.547,655.0162Q1056.3484,655.9906,1056.1536,657.63745L1057.9465,657.8031Q1058.0732,656.70197,1058.8041,656.0881Q1059.5251,655.4839,1060.6458,655.4839Q1061.8248,655.4839,1062.4874,656.10754Q1063.1501,656.7312,1063.1501,657.8616Q1063.1501,658.6996,1062.7603,659.3622Q1062.3802,660.02484,1061.7566,660.62897Q1061.1329,661.23315,1060.3534,661.8373Q1059.5836,662.44147,1058.7943,663.15283Q1058.005,663.85443,1057.2839,664.73145Q1056.5725,665.5987,1056.0756,666.7388L1056.0756,667.9763L1065.1672,667.9763L1065.1672,666.4854L1058.005,666.4854Q1058.2974,665.8033,1058.96,665.06274Q1059.6226,664.3319,1060.7432,663.4159Q1062.7798,661.75934,1063.5009,660.97003Q1064.2219,660.1807,1064.5923,659.3914Q1064.9529,658.6022,1064.9529,657.8031Q1064.9529,656.00037,1063.8322,655.0162Q1062.7213,654.04175,1060.6458,654.04175 Z M1124.131,657.4328L1127.7072,662.5584L1123.9556,667.9763L1125.846,667.9763L1128.7012,663.6498L1131.5367,667.9763L1133.4954,667.9763L1129.6951,662.53894L1133.2712,657.4328L1131.3126,657.4328L1128.7012,661.5352L1126.0701,657.4328 Z M1236.0072,657.4328L1236.0072,667.9763L1237.7612,667.9763L1237.7612,657.4328 Z M1240.4507,653.5155L1240.4507,667.9763L1242.2046,667.9763L1242.2046,653.5155 Z M745.2466,655.07465L744.7301,657.4328L743.44385,657.4328L743.44385,658.70935L744.6619,658.70935L744.6619,665.7448Q744.6619,668.13226,746.7667,668.13226Q747.673,668.13226,748.5402,667.8984L748.5402,666.60236Q747.87756,666.7388,747.5268,666.7388Q746.9129,666.7388,746.65955,666.42694Q746.4159,666.1249,746.4159,665.3648L746.4159,658.70935L748.3648,658.70935L748.3648,657.4328L746.4159,657.4328L746.4159,655.07465 Z M800.72186,655.07465L800.2054,657.4328L798.9191,657.4328L798.9191,658.70935L800.13715,658.70935L800.13715,665.7448Q800.13715,668.13226,802.24194,668.13226Q803.1482,668.13226,804.01544,667.8984L804.01544,666.60236Q803.35284,666.7388,803.0021,666.7388Q802.3881,666.7388,802.13477,666.42694Q801.8912,666.1249,801.8912,665.3648L801.8912,658.70935L803.8401,658.70935L803.8401,657.4328L801.8912,657.4328L801.8912,655.07465 Z M806.2664,655.07465L805.75,657.4328L804.46375,657.4328L804.46375,658.70935L805.68176,658.70935L805.68176,665.7448Q805.68176,668.13226,807.78656,668.13226Q808.6928,668.13226,809.56006,667.8984L809.56006,666.60236Q808.89746,666.7388,808.54663,666.7388Q807.93274,666.7388,807.6794,666.42694Q807.4358,666.1249,807.4358,665.3648L807.4358,658.70935L809.38464,658.70935L809.38464,657.4328L807.4358,657.4328L807.4358,655.07465 Z M946.3627,655.07465L945.8462,657.4328L944.55994,657.4328L944.55994,658.70935L945.77795,658.70935L945.77795,665.7448Q945.77795,668.13226,947.8828,668.13226Q948.789,668.13226,949.65625,667.8984L949.65625,666.60236Q948.99365,666.7388,948.6428,666.7388Q948.02893,666.7388,947.7756,666.42694Q947.532,666.1249,947.532,665.3648L947.532,658.70935L949.48083,658.70935L949.48083,657.4328L947.532,657.4328L947.532,655.07465 Z M951.9072,655.07465L951.3908,657.4328L950.1045,657.4328L950.1045,658.70935L951.3226,658.70935L951.3226,665.7448Q951.3226,668.13226,953.42737,668.13226Q954.3336,668.13226,955.20087,667.8984L955.20087,666.60236Q954.53827,666.7388,954.18744,666.7388Q953.57355,666.7388,953.3202,666.42694Q953.0766,666.1249,953.0766,665.3648L953.0766,658.70935L955.0255,658.70935L955.0255,657.4328L953.0766,657.4328L953.0766,655.07465 Z M1109.1926,655.07465L1108.6763,657.4328L1107.3899,657.4328L1107.3899,658.70935L1108.608,658.70935L1108.608,665.7448Q1108.608,668.13226,1110.7129,668.13226Q1111.619,668.13226,1112.4863,667.8984L1112.4863,666.60236Q1111.8237,666.7388,1111.4729,666.7388Q1110.859,666.7388,1110.6057,666.42694Q1110.362,666.1249,1110.362,665.3648L1110.362,658.70935L1112.3109,658.70935L1112.3109,657.4328L1110.362,657.4328L1110.362,655.07465 Z M1135.8146,655.07465L1135.2981,657.4328L1134.0118,657.4328L1134.0118,658.70935L1135.23,658.70935L1135.23,665.7448Q1135.23,668.13226,1137.3347,668.13226Q1138.241,668.13226,1139.1082,667.8984L1139.1082,666.60236Q1138.4456,666.7388,1138.0947,666.7388Q1137.4808,666.7388,1137.2275,666.42694Q1136.9839,666.1249,1136.9839,665.3648L1136.9839,658.70935L1138.9329,658.70935L1138.9329,657.4328L1136.9839,657.4328L1136.9839,655.07465 Z M1169.6473,655.07465L1169.1309,657.4328L1167.8446,657.4328L1167.8446,658.70935L1169.0627,658.70935L1169.0627,665.7448Q1169.0627,668.13226,1171.1675,668.13226Q1172.0737,668.13226,1172.941,667.8984L1172.941,666.60236Q1172.2783,666.7388,1171.9276,666.7388Q1171.3137,666.7388,1171.0603,666.42694Q1170.8167,666.1249,1170.8167,665.3648L1170.8167,658.70935L1172.7656,658.70935L1172.7656,657.4328L1170.8167,657.4328L1170.8167,655.07465 Z M1220.1334,655.07465L1219.617,657.4328L1218.3307,657.4328L1218.3307,658.70935L1219.5488,658.70935L1219.5488,665.7448Q1219.5488,668.13226,1221.6536,668.13226Q1222.5598,668.13226,1223.4271,667.8984L1223.4271,666.60236Q1222.7644,666.7388,1222.4137,666.7388Q1221.7998,666.7388,1221.5464,666.42694Q1221.3027,666.1249,1221.3027,665.3648L1221.3027,658.70935L1223.2517,658.70935L1223.2517,657.4328L1221.3027,657.4328L1221.3027,655.07465 Z M754.23096,657.2379Q750.45013,657.2379,750.0019,660.0833L751.83386,660.24896Q751.94104,659.37195,752.477,658.9724Q753.01294,658.57294,754.192,658.57294Q755.3613,658.57294,755.90704,659.12836Q756.4527,659.6838,756.4527,660.97003L756.4527,661.545L754.08484,661.5839Q751.6877,661.6424,750.606,662.5194Q749.5342,663.3964,749.5342,665.0335Q749.5342,666.4952,750.3332,667.3332Q751.13226,668.1712,752.7206,668.1712Q753.99713,668.1712,754.8936,667.6645Q755.78033,667.16754,756.4527,665.9592L756.51117,665.9592Q756.56964,667.0506,757.0179,667.5671Q757.4564,668.0738,758.43085,668.0738Q759.1227,668.0738,759.78534,667.91785L759.78534,666.8265Q759.46375,666.8947,759.2104,666.8947Q758.6355,666.8947,758.43085,666.4952Q758.2262,666.1054,758.2262,665.3258L758.2262,660.7849Q758.2262,659.0601,757.22253,658.14417Q756.2189,657.2379,754.23096,657.2379 Z M793.0627,657.2379Q789.28186,657.2379,788.8336,660.0833L790.6655,660.24896Q790.7727,659.37195,791.30865,658.9724Q791.8446,658.57294,793.0237,658.57294Q794.19305,658.57294,794.7387,659.12836Q795.2844,659.6838,795.2844,660.97003L795.2844,661.545L792.9165,661.5839Q790.5194,661.6424,789.43774,662.5194Q788.36584,663.3964,788.36584,665.0335Q788.36584,666.4952,789.1649,667.3332Q789.9639,668.1712,791.5523,668.1712Q792.8288,668.1712,793.72534,667.6645Q794.61206,667.16754,795.2844,665.9592L795.3429,665.9592Q795.40137,667.0506,795.8496,667.5671Q796.2881,668.0738,797.2626,668.0738Q797.9544,668.0738,798.61707,667.91785L798.61707,666.8265Q798.2955,666.8947,798.0421,666.8947Q797.46716,666.8947,797.2626,666.4952Q797.0579,666.1054,797.0579,665.3258L797.0579,660.7849Q797.0579,659.0601,796.05426,658.14417Q795.05054,657.2379,793.0627,657.2379 Z M822.13043,653.5155L822.13043,665.8033Q822.13043,667.45013,822.07196,667.9763L823.7675,667.9763Q823.787,667.8789,823.826,667.25525Q823.8649,666.64136,823.8649,666.33923L823.88446,666.33923Q824.3814,667.30396,825.1804,667.74243Q825.9697,668.1712,827.16833,668.1712Q831.04663,668.1712,831.04663,662.6558Q831.04663,659.92737,830.1014,658.58264Q829.16595,657.2379,827.16833,657.2379Q825.9795,657.2379,825.1707,657.6764Q824.37164,658.1149,823.88446,659.12836L823.84546,659.12836Q823.88446,658.2708,823.88446,657.63745L823.88446,653.5155 Z M877.2451,657.2379Q873.4643,657.2379,873.01605,660.0833L874.848,660.24896Q874.9552,659.37195,875.49115,658.9724Q876.0271,658.57294,877.2062,658.57294Q878.3755,658.57294,878.9212,659.12836Q879.46686,659.6838,879.46686,660.97003L879.46686,661.545L877.099,661.5839Q874.70184,661.6424,873.6202,662.5194Q872.54834,663.3964,872.54834,665.0335Q872.54834,666.4952,873.34735,667.3332Q874.14636,668.1712,875.73474,668.1712Q877.0113,668.1712,877.9078,667.6645Q878.7945,667.16754,879.46686,665.9592L879.5253,665.9592Q879.5838,667.0506,880.03204,667.5671Q880.4706,668.0738,881.445,668.0738Q882.13684,668.0738,882.7995,667.91785L882.7995,666.8265Q882.4779,666.8947,882.22455,666.8947Q881.64966,666.8947,881.445,666.4952Q881.24036,666.1054,881.24036,665.3258L881.24036,660.7849Q881.24036,659.0601,880.2367,658.14417Q879.23303,657.2379,877.2451,657.2379 Z M888.52924,657.4328L888.52924,664.45856Q888.52924,666.4464,889.338,667.3137Q890.1371,668.1712,891.8716,668.1712Q893.05066,668.1712,893.84973,667.7132Q894.63904,667.26495,895.24316,666.1736L895.2724,666.1736Q895.2919,666.9434,895.3114,667.226Q895.3211,667.49884,895.3309,667.7132Q895.3406,667.9276,895.35034,667.9763L897.0069,667.9763Q896.9485,667.5671,896.9485,665.72534L896.9485,657.4328L895.19446,657.4328L895.19446,663.5426Q895.19446,665.0822,894.4636,665.94946Q893.7328,666.8167,892.466,666.8167Q891.59875,666.8167,891.1505,666.56335Q890.7023,666.31,890.4976,665.7351Q890.29297,665.16016,890.29297,664.1175L890.29297,657.4328 Z M903.89624,657.2379Q901.6258,657.2379,900.398,658.63135Q899.17993,660.02484,899.17993,662.63635Q899.17993,665.3843,900.4077,666.7778Q901.6258,668.1712,903.9645,668.1712Q907.3165,668.1712,908.2618,665.67664L906.72217,665.2381Q906.4785,665.9397,905.7867,666.3977Q905.10455,666.8557,903.9645,666.8557Q902.5223,666.8557,901.772,665.8715Q901.0216,664.8873,901.0216,663.0748L908.5444,663.0748L908.5444,662.841Q908.5444,657.2379,903.89624,657.2379 Z M938.7035,657.2379Q934.9226,657.2379,934.47437,660.0833L936.30634,660.24896Q936.4136,659.37195,936.94946,658.9724Q937.4854,658.57294,938.66455,658.57294Q939.83386,658.57294,940.3795,659.12836Q940.92523,659.6838,940.92523,660.97003L940.92523,661.545L938.5573,661.5839Q936.16016,661.6424,935.07855,662.5194Q934.00665,663.3964,934.00665,665.0335Q934.00665,666.4952,934.8057,667.3332Q935.60474,668.1712,937.1931,668.1712Q938.4696,668.1712,939.3661,667.6645Q940.25287,667.16754,940.92523,665.9592L940.9837,665.9592Q941.0422,667.0506,941.4904,667.5671Q941.9289,668.0738,942.9033,668.0738Q943.5952,668.0738,944.2578,667.91785L944.2578,666.8265Q943.9363,666.8947,943.6829,666.8947Q943.108,666.8947,942.9033,666.4952Q942.6987,666.1054,942.6987,665.3258L942.6987,660.7849Q942.6987,659.0601,941.69507,658.14417Q940.69135,657.2379,938.7035,657.2379 Z M967.77124,653.5155L967.77124,665.8033Q967.77124,667.45013,967.71277,667.9763L969.4083,667.9763Q969.4278,667.8789,969.4668,667.25525Q969.50574,666.64136,969.50574,666.33923L969.52527,666.33923Q970.0222,667.30396,970.8213,667.74243Q971.6106,668.1712,972.80914,668.1712Q976.68744,668.1712,976.68744,662.6558Q976.68744,659.92737,975.7422,658.58264Q974.80676,657.2379,972.80914,657.2379Q971.6203,657.2379,970.8115,657.6764Q970.01245,658.1149,969.52527,659.12836L969.48627,659.12836Q969.52527,658.2708,969.52527,657.63745L969.52527,653.5155 Z M1022.886,657.2379Q1019.1051,657.2379,1018.65686,660.0833L1020.4888,660.24896Q1020.596,659.37195,1021.13196,658.9724Q1021.66785,658.57294,1022.8469,658.57294Q1024.0164,658.57294,1024.562,659.12836Q1025.1077,659.6838,1025.1077,660.97003L1025.1077,661.545L1022.73975,661.5839Q1020.34265,661.6424,1019.261,662.5194Q1018.1891,663.3964,1018.1891,665.0335Q1018.1891,666.4952,1018.98816,667.3332Q1019.78723,668.1712,1021.37555,668.1712Q1022.6521,668.1712,1023.5486,667.6645Q1024.4353,667.16754,1025.1077,665.9592L1025.1661,665.9592Q1025.2246,667.0506,1025.6729,667.5671Q1026.1113,668.0738,1027.0858,668.0738Q1027.7777,668.0738,1028.4403,667.91785L1028.4403,666.8265Q1028.1187,666.8947,1027.8654,666.8947Q1027.2904,666.8947,1027.0858,666.4952Q1026.8811,666.1054,1026.8811,665.3258L1026.8811,660.7849Q1026.8811,659.0601,1025.8774,658.14417Q1024.8738,657.2379,1022.886,657.2379 Z M1034.17,657.4328L1034.17,664.45856Q1034.17,666.4464,1034.9788,667.3137Q1035.7778,668.1712,1037.5125,668.1712Q1038.6914,668.1712,1039.4905,667.7132Q1040.2798,667.26495,1040.884,666.1736L1040.9132,666.1736Q1040.9327,666.9434,1040.9521,667.226Q1040.9619,667.49884,1040.9717,667.7132Q1040.9814,667.9276,1040.9912,667.9763L1042.6477,667.9763Q1042.5892,667.5671,1042.5892,665.72534L1042.5892,657.4328L1040.8352,657.4328L1040.8352,663.5426Q1040.8352,665.0822,1040.1045,665.94946Q1039.3735,666.8167,1038.1068,666.8167Q1037.2395,666.8167,1036.7913,666.56335Q1036.343,666.31,1036.1384,665.7351Q1035.9338,665.16016,1035.9338,664.1175L1035.9338,657.4328 Z M1049.5371,657.2379Q1047.2666,657.2379,1046.0388,658.63135Q1044.8208,660.02484,1044.8208,662.63635Q1044.8208,665.3843,1046.0486,666.7778Q1047.2666,668.1712,1049.6052,668.1712Q1052.9574,668.1712,1053.9026,665.67664L1052.3629,665.2381Q1052.1194,665.9397,1051.4275,666.3977Q1050.7454,666.8557,1049.6052,666.8557Q1048.1631,666.8557,1047.4128,665.8715Q1046.6625,664.8873,1046.6625,663.0748L1054.1852,663.0748L1054.1852,662.841Q1054.1852,657.2379,1049.5371,657.2379 Z M1118.1965,657.2379Q1115.9261,657.2379,1114.6982,658.63135Q1113.4802,660.02484,1113.4802,662.63635Q1113.4802,665.3843,1114.708,666.7778Q1115.9261,668.1712,1118.2648,668.1712Q1121.617,668.1712,1122.5621,665.67664L1121.0225,665.2381Q1120.7788,665.9397,1120.087,666.3977Q1119.4049,666.8557,1118.2648,666.8557Q1116.8226,666.8557,1116.0723,665.8715Q1115.322,664.8873,1115.322,663.0748L1122.8447,663.0748L1122.8447,662.841Q1122.8447,657.2379,1118.1965,657.2379 Z M1166.0029,653.5155L1161.9979,668.1712L1163.5765,668.1712L1167.5426,653.5155 Z M1178.6318,657.2379Q1174.851,657.2379,1174.4027,660.0833L1176.2346,660.24896Q1176.3418,659.37195,1176.8777,658.9724Q1177.4137,658.57294,1178.5928,658.57294Q1179.7621,658.57294,1180.3079,659.12836Q1180.8535,659.6838,1180.8535,660.97003L1180.8535,661.545L1178.4856,661.5839Q1176.0885,661.6424,1175.0068,662.5194Q1173.9349,663.3964,1173.9349,665.0335Q1173.9349,666.4952,1174.734,667.3332Q1175.533,668.1712,1177.1213,668.1712Q1178.398,668.1712,1179.2944,667.6645Q1180.1812,667.16754,1180.8535,665.9592L1180.912,665.9592Q1180.9705,667.0506,1181.4187,667.5671Q1181.8572,668.0738,1182.8317,668.0738Q1183.5234,668.0738,1184.186,667.91785L1184.186,666.8265Q1183.8645,666.8947,1183.6112,666.8947Q1183.0363,666.8947,1182.8317,666.4952Q1182.627,666.1054,1182.627,665.3258L1182.627,660.7849Q1182.627,659.0601,1181.6233,658.14417Q1180.6196,657.2379,1178.6318,657.2379 Z M1229.1179,657.2379Q1225.337,657.2379,1224.8888,660.0833L1226.7207,660.24896Q1226.8279,659.37195,1227.3638,658.9724Q1227.8998,658.57294,1229.0789,658.57294Q1230.2482,658.57294,1230.794,659.12836Q1231.3396,659.6838,1231.3396,660.97003L1231.3396,661.545L1228.9717,661.5839Q1226.5746,661.6424,1225.4929,662.5194Q1224.421,663.3964,1224.421,665.0335Q1224.421,666.4952,1225.2201,667.3332Q1226.019,668.1712,1227.6074,668.1712Q1228.884,668.1712,1229.7805,667.6645Q1230.6672,667.16754,1231.3396,665.9592L1231.3981,665.9592Q1231.4565,667.0506,1231.9048,667.5671Q1232.3433,668.0738,1233.3176,668.0738Q1234.0095,668.0738,1234.6721,667.91785L1234.6721,666.8265Q1234.3506,666.8947,1234.0973,666.8947Q1233.5223,666.8947,1233.3176,666.4952Q1233.113,666.1054,1233.113,665.3258L1233.113,660.7849Q1233.113,659.0601,1232.1094,658.14417Q1231.1057,657.2379,1229.1179,657.2379 Z M764.5796,657.26715Q762.582,657.26715,761.5978,658.6022Q760.62335,659.92737,760.62335,662.72406Q760.62335,665.48175,761.5393,666.768Q762.44556,668.05426,764.3847,668.05426Q765.5443,668.05426,766.41156,667.53784Q767.2788,667.0311,767.7758,666.0177L767.7953,666.0177L767.7953,667.7132Q767.7953,670.7827,765.174,670.7827Q764.1996,670.7827,763.5954,670.3832Q763.001,669.9934,762.8256,669.2626L761.0618,669.5159Q761.3542,670.76324,762.3774,671.4454Q763.4005,672.11774,765.1253,672.11774Q769.53955,672.11774,769.53955,667.67426L769.53955,659.61554Q769.53955,657.959,769.598,657.4328L767.9317,657.4328Q767.8927,657.50104,767.85376,658.2221Q767.81476,658.9432,767.81476,659.23553L767.7953,659.23553Q767.34705,658.29034,766.51874,657.77386Q765.7002,657.26715,764.5796,657.26715 Z M1188.9803,657.26715Q1186.9828,657.26715,1185.9985,658.6022Q1185.0242,659.92737,1185.0242,662.72406Q1185.0242,665.48175,1185.9402,666.768Q1186.8463,668.05426,1188.7855,668.05426Q1189.9451,668.05426,1190.8124,667.53784Q1191.6796,667.0311,1192.1765,666.0177L1192.196,666.0177L1192.196,667.7132Q1192.196,670.7827,1189.5748,670.7827Q1188.6003,670.7827,1187.9962,670.3832Q1187.4019,669.9934,1187.2263,669.2626L1185.4626,669.5159Q1185.755,670.76324,1186.7781,671.4454Q1187.8013,672.11774,1189.5261,672.11774Q1193.9403,672.11774,1193.9403,667.67426L1193.9403,659.61554Q1193.9403,657.959,1193.9988,657.4328L1192.3325,657.4328Q1192.2935,657.50104,1192.2545,658.2221Q1192.2156,658.9432,1192.2156,659.23553L1192.196,659.23553Q1191.7478,658.29034,1190.9196,657.77386Q1190.1011,657.26715,1188.9803,657.26715 Z"/>
</g>
</g>
<g style="fill:rgb(217,67,67); fill-opacity:0.6901961; stroke-linejoin: miter">
<path d="M1055.067,-51.090652L1055.067,-51.090652L1055.0675,-51.08986L1054.0392,-50.457016L1054.0387,-50.45781L1055.067,-51.090652L1055.0675,-51.08986L1054.0392,-50.457016L1054.0387,-50.45781L1055.067,-51.090652 M1054.0387,-50.45781C1053.8639,-50.741787,1053.9525,-51.113663,1054.2365,-51.288418C1054.5204,-51.463173,1054.8922,-51.37463,1055.067,-51.090652L1055.067,-51.090652L1055.0675,-51.08986C1055.2423,-50.80588,1055.1537,-50.434006,1054.8698,-50.25925C1054.5858,-50.084496,1054.214,-50.17304,1054.0392,-50.457016L1054.0392,-50.457016L1054.0387,-50.45781C1053.8639,-50.741787,1053.9525,-51.113663,1054.2365,-51.288418C1054.5204,-51.463173,1054.8922,-51.37463,1055.067,-51.090652L1055.067,-51.090652L1055.0675,-51.08986C1055.2423,-50.80588,1055.1537,-50.434006,1054.8698,-50.25925C1054.5858,-50.084496,1054.214,-50.17304,1054.0392,-50.457016L1054.0392,-50.457016L1054.0387,-50.45781 Z"/>
</g>
<g style="fill:rgb(160,112,10); fill-opacity:0.6901961; stroke-linejoin: miter">
<path d="M422.5584,173.74843L422.5584,173.74843L422.55896,173.74928L421.5432,174.40224L421.54266,174.40138L422.5584,173.74843L422.55896,173.74928L421.5432,174.40224L421.54266,174.40138L422.5584,173.74843 M421.54266,174.40138C421.36237,174.1209,421.44357,173.74736,421.72406,173.56705C422.00455,173.38673,422.3781,173.46794,422.5584,173.74843L422.5584,173.74843L422.55896,173.74928C422.73926,174.02977,422.65805,174.4033,422.37756,174.58362C422.09708,174.76393,421.7235,174.68272,421.5432,174.40224L421.5432,174.40224L421.54266,174.40138C421.36237,174.1209,421.44357,173.74736,421.72406,173.56705C422.00455,173.38673,422.3781,173.46794,422.5584,173.74843L422.5584,173.74843L422.55896,173.74928C422.73926,174.02977,422.65805,174.4033,422.37756,174.58362C422.09708,174.76393,421.7235,174.68272,421.5432,174.40224L421.5432,174.40224L421.54266,174.40138 Z"/>
</g>
<g style="fill:rgb(160,112,10); fill-opacity:0.6901961; stroke-linejoin: miter">
<path d="M782.73083,647.2078L782.73083,647.2078L1080.7717,647.2088C1081.1052,647.2088,1081.3755,647.4791,1081.3755,647.81256L1081.3755,647.81256L1081.3755,675.9374C1081.3755,676.2708,1081.1052,676.54114,1080.7717,676.54114L1080.7717,676.54114L782.73083,676.5421C782.57074,676.5421,782.4171,676.4785,782.3039,676.3653C782.1907,676.2521,782.1271,676.09845,782.1271,675.93835L782.1271,675.93835L782.1271,647.8116C782.1271,647.6515,782.1907,647.49786,782.3039,647.38464C782.4171,647.2714,782.57074,647.2078,782.73083,647.2078L782.73083,647.2078 M782.73083,648.41534L783.3346,647.8116L783.3346,675.93835L782.73083,675.3346L1080.7717,675.3336L1080.168,675.9374L1080.168,647.81256L1080.7717,648.4163L782.73083,648.41534 Z"/>
</g>
<g style="fill:rgb(160,112,10); fill-opacity:0.6901961; stroke-linejoin: miter">
<path d="M564.1302,99.1284L564.1302,99.1284L564.1302,99.1294L562.92267,99.1294L562.92267,99.1284L564.1302,99.1284L564.1302,99.1294L562.92267,99.1294L562.92267,99.1284L564.1302,99.1284 M562.92267,99.1284C562.92267,98.79496,563.193,98.52466,563.5264,98.52466C563.85986,98.52466,564.1302,98.79496,564.1302,99.1284L564.1302,99.1284L564.1302,99.1294C564.1302,99.462845,563.85986,99.73315,563.5264,99.73315C563.193,99.73315,562.92267,99.462845,562.92267,99.1294L562.92267,99.1294L562.92267,99.1284C562.92267,98.79496,563.193,98.52466,563.5264,98.52466C563.85986,98.52466,564.1302,98.79496,564.1302,99.1284L564.1302,99.1284L564.1302,99.1294C564.1302,99.462845,563.85986,99.73315,563.5264,99.73315C563.193,99.73315,562.92267,99.462845,562.92267,99.1294L562.92267,99.1294L562.92267,99.1284 Z"/>
</g>
<g style="fill:rgb(243,67,54); fill-opacity:0.6901961; stroke-linejoin: miter">
<path d="M739.5,647.6185L739.5,647.6185L778.0958,647.6195C778.42926,647.6195,778.6996,647.88983,778.6996,648.22327L778.6996,648.22327L778.6996,675.01825C778.6996,675.3517,778.42926,675.622,778.0958,675.622L778.0958,675.622L739.5,675.623C739.33984,675.623,739.18634,675.5594,739.0731,675.44617C738.9599,675.33295,738.89624,675.1794,738.89624,675.0192L738.89624,675.0192L738.89624,648.2223C738.89624,648.06213,738.9599,647.90857,739.0731,647.79535C739.18634,647.6821,739.33984,647.6185,739.5,647.6185L739.5,647.6185 M739.5,648.82605L740.10376,648.2223L740.10376,675.0192L739.5,674.41547L778.0958,674.4145L777.49207,675.01825L777.49207,648.22327L778.0958,648.827L739.5,648.82605 Z"/>
</g>
<g style="fill:rgb(243,67,54); fill-opacity:0.6901961; stroke-linejoin: miter">
<path d="M584.49066,100.8466L584.49066,100.8466L584.49066,100.8476L583.28314,100.8476L583.28314,100.8466L584.49066,100.8466L584.49066,100.8476L583.28314,100.8476L583.28314,100.8466L584.49066,100.8466 M583.28314,100.8466C583.28314,100.51316,583.55347,100.24286,583.8869,100.24286C584.22034,100.24286,584.49066,100.51316,584.49066,100.8466L584.49066,100.8466L584.49066,100.8476C584.49066,101.181046,584.22034,101.45135,583.8869,101.45135C583.55347,101.45135,583.28314,101.181046,583.28314,100.8476L583.28314,100.8476L583.28314,100.8466C583.28314,100.51316,583.55347,100.24286,583.8869,100.24286C584.22034,100.24286,584.49066,100.51316,584.49066,100.8466L584.49066,100.8466L584.49066,100.8476C584.49066,101.181046,584.22034,101.45135,583.8869,101.45135C583.55347,101.45135,583.28314,101.181046,583.28314,100.8476L583.28314,100.8476L583.28314,100.8466 Z"/>
</g>
<g style="fill:rgb(102,57,183); fill-opacity:0.6901961; stroke-linejoin: miter">
<path d="M1098.4299,647.10675L1098.4299,647.10675L1145.0336,647.1077C1145.3671,647.1077,1145.6373,647.37805,1145.6373,647.7115L1145.6373,647.7115L1145.6373,675.4281C1145.6373,675.76154,1145.3671,676.03186,1145.0336,676.03186L1145.0336,676.03186L1098.4299,676.03284C1098.2698,676.03284,1098.1163,675.96924,1098.003,675.856C1097.8898,675.7428,1097.8262,675.58923,1097.8262,675.4291L1097.8262,675.4291L1097.8262,647.7105C1097.8262,647.55035,1097.8898,647.3968,1098.003,647.28357C1098.1163,647.17035,1098.2698,647.10675,1098.4299,647.10675L1098.4299,647.10675 M1098.4299,648.3143L1099.0337,647.7105L1099.0337,675.4291L1098.4299,674.8253L1145.0336,674.82434L1144.4298,675.4281L1144.4298,647.7115L1145.0336,648.31525L1098.4299,648.3143 Z"/>
</g>
<g style="fill:rgb(151,13,148); fill-opacity:0.6901961; stroke-linejoin: miter">
<path d="M1211.361,646.1451L1211.361,646.1451L1249.2759,646.14606C1249.6093,646.14606,1249.8796,646.4164,1249.8796,646.7498L1249.8796,646.7498L1249.8796,675.7261C1249.8796,676.0595,1249.6093,676.32983,1249.2759,676.32983L1249.2759,676.32983L1211.361,676.3308C1211.2008,676.3308,1211.0474,676.2672,1210.9341,676.154C1210.8208,676.0408,1210.7572,675.8872,1210.7572,675.72705L1210.7572,675.72705L1210.7572,646.74884C1210.7572,646.5887,1210.8208,646.4351,1210.9341,646.3219C1211.0474,646.2087,1211.2008,646.1451,1211.361,646.1451L1211.361,646.1451 M1211.361,647.3526L1211.9647,646.74884L1211.9647,675.72705L1211.361,675.1233L1249.2759,675.1223L1248.6721,675.7261L1248.6721,646.7498L1249.2759,647.3536L1211.361,647.3526 Z"/>
</g>
<g>
<g style="fill:rgb(0,0,0); fill-opacity:1.0; stroke-linejoin: miter">
<path d="M889.13104,707.3909L889.13104,710.62384L892.5143,710.62384L892.5143,707.3909 Z M959.29584,717.0708Q961.83325,717.0708,963.1865,718.55566Q964.53986,720.0217,964.8218,723.23584L953.84503,723.23584Q953.9578,720.36005,955.4051,718.706Q956.83356,717.0708,959.29584,717.0708 Z M845.9195,725.24695L845.9195,726.9198Q845.9195,728.47986,845.07367,729.9647Q844.24664,731.4308,842.7994,732.2766Q841.3521,733.12244,839.49133,733.12244Q837.8373,733.12244,836.93506,732.2202Q836.0517,731.318,836.0517,729.664Q836.0517,728.14154,836.70953,727.2017Q837.3674,726.26196,838.6079,725.81085Q839.82965,725.35974,842.2167,725.32214L845.9195,725.24695 Z M906.55475,717.18353Q909.0922,717.18353,910.22,719.0256Q911.3477,720.86755,911.3477,725.1342Q911.3477,729.382,910.2012,731.2804Q909.0734,733.16,906.5172,733.16Q903.6414,733.16,902.3633,731.2428Q901.0852,729.3445,901.0852,725.34094Q901.0852,721.0931,902.4009,719.1383Q903.6978,717.18353,906.55475,717.18353 Z M884.54486,714.5709Q882.6277,714.5709,881.57513,715.52954Q880.5226,716.4881,879.71436,719.1007L879.63916,719.1007Q879.63916,718.4053,879.4888,714.94684L876.2935,714.94684Q876.4063,717.54065,876.4063,719.6834L876.4063,735.28394L879.78955,735.28394L879.78955,724.6831Q879.78955,721.29987,880.8985,719.4766Q882.00745,717.67224,884.11255,717.67224Q885.2403,717.67224,885.917,717.8602L885.917,714.7589Q885.2215,714.5709,884.54486,714.5709 Z M889.13104,714.94684L889.13104,735.28394L892.5143,735.28394L892.5143,714.94684 Z M856.40753,710.39825L855.4114,714.94684L852.9303,714.94684L852.9303,717.4091L855.2798,717.4091L855.2798,730.9797Q855.2798,735.58466,859.33966,735.58466Q861.0877,735.58466,862.7605,735.13354L862.7605,732.6337Q861.4824,732.89685,860.8058,732.89685Q859.62164,732.89685,859.13293,732.2954Q858.663,731.7127,858.663,730.24664L858.663,717.4091L862.4222,717.4091L862.4222,714.94684L858.663,714.94684L858.663,710.39825 Z M867.10236,710.39825L866.1062,714.94684L863.6251,714.94684L863.6251,717.4091L865.9746,717.4091L865.9746,730.9797Q865.9746,735.58466,870.0345,735.58466Q871.78253,735.58466,873.4553,735.13354L873.4553,732.6337Q872.17725,732.89685,871.50055,732.89685Q870.31647,732.89685,869.82776,732.2954Q869.35785,731.7127,869.35785,730.24664L869.35785,717.4091L873.117,717.4091L873.117,714.94684L869.35785,714.94684L869.35785,710.39825 Z M941.98486,710.39825L940.9887,714.94684L938.5076,714.94684L938.5076,717.4091L940.8571,717.4091L940.8571,730.9797Q940.8571,735.58466,944.91705,735.58466Q946.66504,735.58466,948.3379,735.13354L948.3379,732.6337Q947.05975,732.89685,946.3831,732.89685Q945.199,732.89685,944.71027,732.2954Q944.24036,731.7127,944.24036,730.24664L944.24036,717.4091L947.9995,717.4091L947.9995,714.94684L944.24036,714.94684L944.24036,710.39825 Z M841.63403,714.5709Q834.34125,714.5709,833.4766,720.0593L837.01025,720.37885Q837.21704,718.6872,838.2508,717.9166Q839.28455,717.146,841.55884,717.146Q843.81433,717.146,844.8669,718.21735Q845.9195,719.2887,845.9195,721.7697L845.9195,722.87866L841.3521,722.95386Q836.72833,723.06665,834.64197,724.7583Q832.57446,726.4499,832.57446,729.6076Q832.57446,732.42694,834.1157,734.0434Q835.657,735.65985,838.7207,735.65985Q841.1829,735.65985,842.9122,734.68243Q844.62256,733.7239,845.9195,731.3932L846.0322,731.3932Q846.145,733.49835,847.00964,734.4945Q847.85547,735.47186,849.73505,735.47186Q851.0695,735.47186,852.34766,735.17114L852.34766,733.06604Q851.72736,733.1976,851.2387,733.1976Q850.12976,733.1976,849.73505,732.42694Q849.34033,731.6751,849.34033,730.17145L849.34033,721.4126Q849.34033,718.08575,847.40436,716.319Q845.4684,714.5709,841.63403,714.5709 Z M897.70197,707.3909L897.70197,731.09247Q897.70197,734.269,897.5892,735.28394L900.8596,735.28394Q900.8972,735.09595,900.9724,733.89307Q901.0476,732.7089,901.0476,732.1262L901.0852,732.1262Q902.04376,733.987,903.585,734.8328Q905.1075,735.65985,907.4194,735.65985Q914.9001,735.65985,914.9001,725.0214Q914.9001,719.7586,913.0769,717.16473Q911.2725,714.5709,907.4194,714.5709Q905.1263,714.5709,903.5662,715.41675Q902.02496,716.2626,901.0852,718.21735L901.01,718.21735Q901.0852,716.5633,901.0852,715.34155L901.0852,707.3909 Z M919.0164,714.94684L919.0164,728.49866Q919.0164,732.333,920.5764,734.0058Q922.1177,735.65985,925.4634,735.65985Q927.7377,735.65985,929.27893,734.7764Q930.8014,733.91187,931.96674,731.8067L932.0231,731.8067Q932.06067,733.29156,932.09827,733.8367Q932.11707,734.3629,932.13586,734.7764Q932.15466,735.18994,932.17346,735.28394L935.3688,735.28394Q935.256,734.4945,935.256,730.9421L935.256,714.94684L931.87274,714.94684L931.87274,726.7318Q931.87274,729.7016,930.463,731.3744Q929.05334,733.04724,926.6099,733.04724Q924.9371,733.04724,924.07245,732.55853Q923.2079,732.0698,922.8132,730.9609Q922.41846,729.8519,922.41846,727.84076L922.41846,714.94684 Z M959.35223,714.5709Q954.9728,714.5709,952.6045,717.2587Q950.255,719.94653,950.255,724.9838Q950.255,730.28424,952.6233,732.97205Q954.9728,735.65985,959.48376,735.65985Q965.9495,735.65985,967.7727,730.84814L964.803,730.0023Q964.3331,731.3556,962.9986,732.239Q961.68286,733.12244,959.48376,733.12244Q956.702,733.12244,955.2547,731.22406Q953.80743,729.3257,953.80743,725.82965L968.3178,725.82965L968.3178,725.37854Q968.3178,714.5709,959.35223,714.5709 Z"/>
</g>
</g>
<g>
<g style="fill:rgb(0,0,0); fill-opacity:1.0; stroke-linejoin: miter">
<path d="M763.2192,712.01337Q764.76135,712.01337,765.98773,712.96094Q767.19543,713.88995,767.8643,715.6737Q768.53326,717.4389,768.53326,719.89154Q768.53326,722.2884,767.8643,724.035Q767.19543,725.763,765.9691,726.692Q764.7428,727.62103,763.16345,727.62103Q760.5064,727.62103,759.41016,725.8187Q758.3139,724.0164,758.3139,719.89154Q758.3139,715.72943,759.4845,713.8714Q760.6551,712.01337,763.2192,712.01337 Z M746.90546,720.0216L746.90546,721.67523Q746.90546,723.2174,746.06934,724.6853Q745.2518,726.1346,743.82104,726.9707Q742.3904,727.8068,740.5509,727.8068Q738.9158,727.8068,738.0239,726.915Q737.15063,726.02313,737.15063,724.388Q737.15063,722.883,737.80096,721.954Q738.4513,721.0249,739.6776,720.579Q740.8853,720.13306,743.24506,720.0959L746.90546,720.0216 Z M725.5378,705.3429L724.553,709.8394L722.10034,709.8394L722.10034,712.2735L724.4229,712.2735L724.4229,725.68866Q724.4229,730.2409,728.43634,730.2409Q730.1643,730.2409,731.818,729.795L731.818,727.3237Q730.5545,727.58386,729.8856,727.58386Q728.715,727.58386,728.23193,726.9893Q727.76746,726.4133,727.76746,724.964L727.76746,712.2735L731.4835,712.2735L731.4835,709.8394L727.76746,709.8394L727.76746,705.3429 Z M742.66907,709.4678Q735.4598,709.4678,734.6051,714.8933L738.09827,715.2092Q738.3026,713.5369,739.3246,712.77515Q740.3465,712.01337,742.5947,712.01337Q744.8244,712.01337,745.8649,713.07245Q746.90546,714.13153,746.90546,716.58417L746.90546,717.6804L742.3904,717.75476Q737.8195,717.8662,735.7571,719.53845Q733.7132,721.21075,733.7132,724.3323Q733.7132,727.1194,735.2368,728.7173Q736.76044,730.31525,739.78906,730.31525Q742.22314,730.31525,743.93256,729.34906Q745.62335,728.4014,746.90546,726.0974L747.0169,726.0974Q747.1284,728.17847,747.9831,729.1632Q748.8192,730.1294,750.6773,730.1294Q751.9965,730.1294,753.26,729.83215L753.26,727.7511Q752.64685,727.88116,752.16376,727.88116Q751.0675,727.88116,750.6773,727.1194Q750.2871,726.37616,750.2871,724.8897L750.2871,716.23114Q750.2871,712.9424,748.3733,711.1958Q746.4595,709.4678,742.66907,709.4678 Z M762.4017,709.52356Q758.59265,709.52356,756.716,712.0691Q754.8579,714.59607,754.8579,719.92865Q754.8579,725.187,756.6045,727.63965Q758.3325,730.0923,762.03,730.0923Q764.24115,730.0923,765.8948,729.1075Q767.54846,728.1413,768.4961,726.2089L768.53326,726.2089L768.53326,729.44196Q768.53326,735.2948,763.53503,735.2948Q761.677,735.2948,760.525,734.533Q759.3916,733.7898,759.0571,732.39624L755.69403,732.87933Q756.25146,735.2577,758.20245,736.5583Q760.1534,737.84033,763.44214,737.84033Q771.8592,737.84033,771.8592,729.3676L771.8592,714.00146Q771.8592,710.8428,771.97064,709.8394L768.7934,709.8394Q768.71906,709.9695,768.6447,711.3444Q768.57043,712.7194,768.57043,713.2768L768.53326,713.2768Q767.6785,711.4745,766.0992,710.48975Q764.5384,709.52356,762.4017,709.52356 Z"/>
</g>
</g>
<g>
<g style="fill:rgb(0,0,0); fill-opacity:1.0; stroke-linejoin: miter">
<path d="M1101.5586,719.76514Q1104.067,719.76514,1105.4048,721.233Q1106.7426,722.6823,1107.0214,725.85956L1096.1703,725.85956Q1096.2817,723.0167,1097.7124,721.38165Q1099.1245,719.76514,1101.5586,719.76514 Z M1112.9299,717.6655L1119.749,727.4389L1112.5955,737.7697L1116.2001,737.7697L1121.6443,729.51996L1127.0511,737.7697L1130.7859,737.7697L1123.5394,727.40173L1130.3585,717.6655L1126.6238,717.6655L1121.6443,725.488L1116.6274,717.6655 Z M1084.4459,713.169L1083.4612,717.6655L1081.0085,717.6655L1081.0085,720.0996L1083.331,720.0996L1083.331,733.5148Q1083.331,738.067,1087.3445,738.067Q1089.0725,738.067,1090.7262,737.6211L1090.7262,735.14984Q1089.4626,735.41,1088.7937,735.41Q1087.6232,735.41,1087.1401,734.8154Q1086.6755,734.2394,1086.6755,732.7901L1086.6755,720.0996L1090.3917,720.0996L1090.3917,717.6655L1086.6755,717.6655L1086.6755,713.169 Z M1135.2081,713.169L1134.2233,717.6655L1131.7706,717.6655L1131.7706,720.0996L1134.0933,720.0996L1134.0933,733.5148Q1134.0933,738.067,1138.1067,738.067Q1139.8346,738.067,1141.4883,737.6211L1141.4883,735.14984Q1140.2249,735.41,1139.5559,735.41Q1138.3854,735.41,1137.9022,734.8154Q1137.4377,734.2394,1137.4377,732.7901L1137.4377,720.0996L1141.1538,720.0996L1141.1538,717.6655L1137.4377,717.6655L1137.4377,713.169 Z M1101.6144,717.2939Q1097.285,717.2939,1094.944,719.9509Q1092.6213,722.608,1092.6213,727.5876Q1092.6213,732.8273,1094.9625,735.4843Q1097.285,738.14136,1101.7444,738.14136Q1108.1361,738.14136,1109.9385,733.3847L1107.0027,732.5486Q1106.5382,733.88635,1105.219,734.75964Q1103.9183,735.63293,1101.7444,735.63293Q1098.9945,735.63293,1097.5638,733.7563Q1096.133,731.8797,1096.133,728.4237L1110.4773,728.4237L1110.4773,727.9777Q1110.4773,717.2939,1101.6144,717.2939 Z"/>
</g>
</g>
<g>
<g style="fill:rgb(0,0,0); fill-opacity:1.0; stroke-linejoin: miter">
<path d="M1231.5789,707.7505L1231.5789,710.94635L1234.9235,710.94635L1234.9235,707.7505 Z M1222.6788,725.4021L1222.6788,727.0557Q1222.6788,728.5979,1221.8427,730.0658Q1221.0251,731.5151,1219.5945,732.3512Q1218.1637,733.1873,1216.3242,733.1873Q1214.6892,733.1873,1213.7972,732.2955Q1212.924,731.4036,1212.924,729.7685Q1212.924,728.2635,1213.5743,727.3345Q1214.2246,726.4054,1215.4509,725.9595Q1216.6587,725.51355,1219.0184,725.4764L1222.6788,725.4021 Z M1231.5789,715.2199L1231.5789,735.3241L1234.9235,735.3241L1234.9235,715.2199 Z M1240.0516,707.7505L1240.0516,735.3241L1243.3961,735.3241L1243.3961,707.7505 Z M1201.3112,710.7234L1200.3264,715.2199L1197.8738,715.2199L1197.8738,717.654L1200.1963,717.654L1200.1963,731.06915Q1200.1963,735.6214,1204.2097,735.6214Q1205.9377,735.6214,1207.5914,735.1755L1207.5914,732.7042Q1206.3279,732.96436,1205.6589,732.96436Q1204.4884,732.96436,1204.0054,732.3698Q1203.5408,731.7938,1203.5408,730.3445L1203.5408,717.654L1207.257,717.654L1207.257,715.2199L1203.5408,715.2199L1203.5408,710.7234 Z M1218.4424,714.84827Q1211.2332,714.84827,1210.3784,720.2738L1213.8716,720.5897Q1214.076,718.9174,1215.0979,718.15564Q1216.1199,717.39386,1218.3682,717.39386Q1220.5978,717.39386,1221.6383,718.45294Q1222.6788,719.512,1222.6788,721.96466L1222.6788,723.0609L1218.1637,723.13525Q1213.5929,723.2467,1211.5305,724.91895Q1209.4866,726.59125,1209.4866,729.71277Q1209.4866,732.4999,1211.0103,734.0978Q1212.5338,735.69574,1215.5625,735.69574Q1217.9965,735.69574,1219.7059,734.72955Q1221.3967,733.7819,1222.6788,731.4779L1222.7903,731.4779Q1222.9017,733.55896,1223.7565,734.5437Q1224.5927,735.5099,1226.4507,735.5099Q1227.7699,735.5099,1229.0333,735.21265L1229.0333,733.1316Q1228.4202,733.26166,1227.9371,733.26166Q1226.8408,733.26166,1226.4507,732.4999Q1226.0604,731.75665,1226.0604,730.2702L1226.0604,721.61163Q1226.0604,718.3229,1224.1467,716.5763Q1222.2329,714.84827,1218.4424,714.84827 Z"/>
</g>
</g>
<g style="fill:rgb(63,80,181); fill-opacity:0.6901961; stroke-linejoin: miter">
<path d="M746.6561,704.55743L746.6561,704.55743L760.09094,675.69415C760.4904,674.83594,761.51,674.46405,762.3682,674.8635C763.22644,675.263,763.5983,676.2826,763.19885,677.1408L763.19885,677.1408L749.76404,706.0041C749.36456,706.8623,748.345,707.2342,747.48676,706.8347C746.62854,706.43524,746.25665,705.41565,746.6561,704.55743 Z"/>
</g>
<g style="fill:rgb(63,80,181); fill-opacity:0.6901961; stroke-linejoin: miter">
<path d="M909.3308,706.39856L909.3308,706.39856L917.4412,676.15125C917.6864,675.2369,918.62634,674.6944,919.5407,674.9396C920.4551,675.18475,920.99756,676.1247,920.7524,677.03906L920.7524,677.03906L912.64197,707.2864C912.3968,708.20074,911.45685,708.7432,910.5425,708.49805C909.6281,708.25287,909.08563,707.3129,909.3308,706.39856 Z"/>
</g>
<g style="fill:rgb(63,80,181); fill-opacity:0.6901961; stroke-linejoin: miter">
<path d="M1110.5404,710.62225L1110.5404,710.62225L1119.1105,676.404C1119.3405,675.4857,1120.2712,674.92773,1121.1896,675.1577C1122.1079,675.3877,1122.6659,676.3186,1122.4359,677.2369L1122.4359,677.2369L1113.8658,711.45514C1113.6359,712.3734,1112.7051,712.9314,1111.7867,712.7014C1110.8684,712.47144,1110.3104,711.5405,1110.5404,710.62225 Z"/>
</g>
<g style="fill:rgb(63,80,181); fill-opacity:0.6901961; stroke-linejoin: miter">
<path d="M1219.7439,705.5495L1219.7439,705.5495L1227.6569,676.3002C1227.904,675.38635,1228.8452,674.846,1229.759,675.0932C1230.6729,675.3404,1231.2131,676.2816,1230.966,677.19543L1230.966,677.19543L1223.053,706.44476C1222.8058,707.3586,1221.8646,707.8989,1220.9508,707.65173C1220.037,707.40454,1219.4967,706.4633,1219.7439,705.5495 Z"/>
</g>
</g>
</svg>